name ./resultDataOpenSim/trcMotMarkerGrf/sub09/grf-01-03.mot
datacolumns 19
datarows 27
range 0.92800000 1.03200000
endheader

                time	     ground_force_vx	     ground_force_vy	     ground_force_vz	     ground_force_px	     ground_force_py	     ground_force_pz	   l_ground_force_vx	   l_ground_force_vy	   l_ground_force_vz	   l_ground_force_px	   l_ground_force_py	   l_ground_force_pz	     ground_torque_x	     ground_torque_y	     ground_torque_z	   l_ground_torque_x	   l_ground_torque_y	   l_ground_torque_z	
          0.92800000	          0.00000000	          0.00000000	          0.00000000	          0.00000000	          0.00000000	          0.00000000	         -9.42300060	        409.24186557	         12.47058393	          0.13276830	         -0.00000000	          0.00828078	          0.00000000	          0.00000000	          0.00000000	          0.00000000	         -1.21821257	          0.00000000	
          0.93200000	          0.00000000	          0.00000000	          0.00000000	          0.00000000	          0.00000000	          0.00000000	         -7.30419835	        417.28119636	         13.32420825	          0.13277955	         -0.00000000	          0.00828054	          0.00000000	          0.00000000	          0.00000000	          0.00000000	         -1.33705731	          0.00000000	
          0.93600000	          0.00000000	          0.00000000	          0.00000000	          0.00000000	          0.00000000	          0.00000000	         -4.92925767	        425.82665930	         14.16168814	          0.13303025	         -0.00000000	          0.00839810	          0.00000000	          0.00000000	          0.00000000	          0.00000000	         -1.46671217	          0.00000000	
          0.94000000	          0.00000000	          0.00000000	          0.00000000	          0.00000000	          0.00000000	          0.00000000	         -2.30337762	        434.72825090	         14.95915621	          0.13355806	         -0.00000000	          0.00863156	          0.00000000	          0.00000000	          0.00000000	          0.00000000	         -1.61250578	          0.00000000	
          0.94400000	          0.00000000	          0.00000000	          0.00000000	          0.00000000	          0.00000000	          0.00000000	          0.54979249	        443.85349482	         15.67544796	          0.13428302	         -0.00000000	          0.00894205	          0.00000000	          0.00000000	          0.00000000	          0.00000000	         -1.78093728	          0.00000000	
          0.94800000	          0.00000000	          0.00000000	          0.00000000	          0.00000000	          0.00000000	          0.00000000	          3.61265829	        453.10981472	         16.24394574	          0.13506082	         -0.00000000	          0.00925815	          0.00000000	          0.00000000	          0.00000000	          0.00000000	         -1.97948785	          0.00000000	
          0.95200000	          0.00000000	          0.00000000	          0.00000000	          0.00000000	          0.00000000	          0.00000000	          6.88664745	        462.45757647	         16.58178812	          0.13574867	         -0.00000000	          0.00950172	          0.00000000	          0.00000000	          0.00000000	          0.00000000	         -2.21557386	          0.00000000	
          0.95600000	          0.00000000	          0.00000000	          0.00000000	          0.00000000	          0.00000000	          0.00000000	         10.38360761	        471.93426225	         16.61529156	          0.13625130	         -0.00000000	          0.00962487	          0.00000000	          0.00000000	          0.00000000	          0.00000000	         -2.49483285	          0.00000000	
          0.96000000	          0.00000000	          0.00000000	          0.00000000	          0.00000000	          0.00000000	          0.00000000	         14.12302568	        481.66188998	         16.31152122	          0.13654537	         -0.00000000	          0.00963399	          0.00000000	          0.00000000	          0.00000000	          0.00000000	         -2.81939404	          0.00000000	
          0.96400000	          0.00000000	          0.00000000	          0.00000000	          0.00000000	          0.00000000	          0.00000000	         18.13107334	        491.77011508	         15.69653169	          0.13668952	         -0.00000000	          0.00958523	          0.00000000	          0.00000000	          0.00000000	          0.00000000	         -3.18684419	          0.00000000	
          0.96800000	          0.00000000	          0.00000000	          0.00000000	          0.00000000	          0.00000000	          0.00000000	         22.42754457	        502.28505484	         14.84595645	          0.13680442	         -0.00000000	          0.00954688	          0.00000000	          0.00000000	          0.00000000	          0.00000000	         -3.59026160	          0.00000000	
          0.97200000	          0.00000000	          0.00000000	          0.00000000	          0.00000000	          0.00000000	          0.00000000	         27.01592430	        513.13359584	         13.85430860	          0.13700151	         -0.00000000	          0.00955463	          0.00000000	          0.00000000	          0.00000000	          0.00000000	         -4.01919361	          0.00000000	
          0.97600000	          0.00000000	          0.00000000	          0.00000000	          0.00000000	          0.00000000	          0.00000000	         31.88191401	        524.26654110	         12.81294029	          0.13730873	         -0.00000000	          0.00960227	          0.00000000	          0.00000000	          0.00000000	          0.00000000	         -4.46112067	          0.00000000	
          0.98000000	          0.00000000	          0.00000000	          0.00000000	          0.00000000	          0.00000000	          0.00000000	         36.99278104	        535.72413282	         11.81289663	          0.13768852	         -0.00000000	          0.00967991	          0.00000000	          0.00000000	          0.00000000	          0.00000000	         -4.90294868	          0.00000000	
          0.98400000	          0.00000000	          0.00000000	          0.00000000	          0.00000000	          0.00000000	          0.00000000	         42.30218497	        547.57202912	         10.94682055	          0.13808530	         -0.00000000	          0.00977740	          0.00000000	          0.00000000	          0.00000000	          0.00000000	         -5.33226096	          0.00000000	
          0.98800000	          0.00000000	          0.00000000	          0.00000000	          0.00000000	          0.00000000	          0.00000000	         47.76300693	        559.82620755	         10.29395583	          0.13846760	         -0.00000000	          0.00987613	          0.00000000	          0.00000000	          0.00000000	          0.00000000	         -5.73819346	          0.00000000	
          0.99200000	          0.00000000	          0.00000000	          0.00000000	          0.00000000	          0.00000000	          0.00000000	         53.33724359	        572.45642903	          9.90675865	          0.13885236	         -0.00000000	          0.00997231	          0.00000000	          0.00000000	          0.00000000	          0.00000000	         -6.11183571	          0.00000000	
          0.99600000	          0.00000000	          0.00000000	          0.00000000	          0.00000000	          0.00000000	          0.00000000	         58.98589982	        585.43240729	          9.80790688	          0.13925577	         -0.00000000	          0.01006265	          0.00000000	          0.00000000	          0.00000000	          0.00000000	         -6.44613593	          0.00000000	
          1.00000000	          0.00000000	          0.00000000	          0.00000000	          0.00000000	          0.00000000	          0.00000000	         64.65320983	        598.75457807	          9.99735218	          0.13967563	         -0.00000000	          0.01013060	          0.00000000	          0.00000000	          0.00000000	          0.00000000	         -6.73544462	          0.00000000	
          1.00400000	          0.00000000	          0.00000000	          0.00000000	          0.00000000	          0.00000000	          0.00000000	         70.27816302	        612.45084315	         10.46877186	          0.14007171	         -0.00000000	          0.01014376	          0.00000000	          0.00000000	          0.00000000	          0.00000000	         -6.97500173	          0.00000000	
          1.00800000	          0.00000000	          0.00000000	          0.00000000	          0.00000000	          0.00000000	          0.00000000	         75.81865726	        626.53718479	         11.22307301	          0.14041393	         -0.00000000	          0.01010449	          0.00000000	          0.00000000	          0.00000000	          0.00000000	         -7.16076433	          0.00000000	
          1.01200000	          0.00000000	          0.00000000	          0.00000000	          0.00000000	          0.00000000	          0.00000000	         81.26536978	        640.97232846	         12.26631268	          0.14071251	         -0.00000000	          0.01004196	          0.00000000	          0.00000000	          0.00000000	          0.00000000	         -7.28985839	          0.00000000	
          1.01600000	          0.00000000	          0.00000000	          0.00000000	          0.00000000	          0.00000000	          0.00000000	         86.64582478	        655.65179754	         13.58850670	          0.14099332	         -0.00000000	          0.00998798	          0.00000000	          0.00000000	          0.00000000	          0.00000000	         -7.36154889	          0.00000000	
          1.02000000	          0.00000000	          0.00000000	          0.00000000	          0.00000000	          0.00000000	          0.00000000	         92.00645189	        670.43021337	         15.14593467	          0.14126697	         -0.00000000	          0.00994470	          0.00000000	          0.00000000	          0.00000000	          0.00000000	         -7.37819412	          0.00000000	
          1.02400000	          0.00000000	          0.00000000	          0.00000000	          0.00000000	          0.00000000	          0.00000000	         97.37947472	        685.14295775	         16.87205010	          0.14152486	         -0.00000000	          0.00990232	          0.00000000	          0.00000000	          0.00000000	          0.00000000	         -7.34561368	          0.00000000	
          1.02800000	          0.00000000	          0.00000000	          0.00000000	          0.00000000	          0.00000000	          0.00000000	        102.76469138	        699.61387940	         18.69327248	          0.14173830	         -0.00000000	          0.00985083	          0.00000000	          0.00000000	          0.00000000	          0.00000000	         -7.27265299	          0.00000000	
          1.03200000	          0.00000000	          0.00000000	          0.00000000	          0.00000000	          0.00000000	          0.00000000	        108.13130308	        713.63276960	         20.52522606	          0.14190689	         -0.00000000	          0.00978948	          0.00000000	          0.00000000	          0.00000000	          0.00000000	         -7.17003731	          0.00000000	
